<?xml version="1.0" encoding="utf-8"?>
<!-- Generator: Adobe Illustrator 21.0.2, SVG Export Plug-In . SVG Version: 6.00 Build 0)  -->
<svg version="1.1" id="Layer_1" xmlns="http://www.w3.org/2000/svg" xmlns:xlink="http://www.w3.org/1999/xlink" x="0px" y="0px"
	 width="740px" height="225px" viewBox="0 0 740 225" style="enable-background:new 0 0 740 225;" xml:space="preserve">
<style type="text/css">
	.st0{display:none;fill:url(#SVGID_1_);}
	.st1{fill:#FFFFFF;stroke:#FFFFFF;stroke-width:3;stroke-miterlimit:10;}
	.st2{fill:#FFFFFF;stroke:#FFFFFF;stroke-width:2;stroke-miterlimit:10;}
</style>
<linearGradient id="SVGID_1_" gradientUnits="userSpaceOnUse" x1="411.75" y1="225" x2="411.75" y2="161.0373">
	<stop  offset="0" style="stop-color:#FFFFFF;stop-opacity:0"/>
	<stop  offset="1" style="stop-color:#FFFFFF;stop-opacity:0.98"/>
</linearGradient>
<path class="st0" d="M435.5,162.1c-165.2-5.2-332.9,19.3-351,62.9H739C703.4,192.6,577.3,166.6,435.5,162.1z"/>
<g id="XMLID_1_">
	<path class="st1" d="M86.3,157H82L6.6,47.6l-0.5,0.2V157H1.7V39.5h4.4l75.4,109.2l0.5-0.2v-109h4.4V157z"/>
	<path class="st1" d="M181.9,97.9H123v54.7h67.1v4.4h-71.5V39.5h71.5v4.4H123v49.7h58.9V97.9z"/>
	<path class="st1" d="M259.8,157h-4.4V39.5h4.4V157z"/>
	<path class="st1" d="M413.9,39.5v79.6c0,12.8-3.7,22.6-11.1,29.4c-7.4,6.8-17.1,10.2-29,10.2c-12,0-21.7-3.4-29.1-10.2
		c-7.4-6.8-11.1-16.6-11.1-29.3V39.5h4.4v79.6c0,11,3.3,19.6,10,25.9c6.7,6.2,15.3,9.3,25.8,9.3c10.5,0,19.1-3.1,25.7-9.3
		s10-14.8,10-25.9V39.5H413.9z"/>
	<path class="st1" d="M529.7,157h-4.4L449.9,47.6l-0.5,0.2V157H445V39.5h4.4l75.4,109.2l0.5-0.2v-109h4.4V157z"/>
	<path class="st1" d="M645.1,107.1c0,15.9-3.9,28.4-11.8,37.7c-7.9,9.3-18.7,13.9-32.4,13.9c-13.8,0-24.7-4.6-32.6-13.9
		c-7.9-9.3-11.8-21.9-11.8-37.7V89.5c0-15.8,3.9-28.4,11.7-37.7c7.8-9.3,18.7-14,32.5-14c13.8,0,24.6,4.7,32.5,14
		c7.9,9.3,11.9,21.9,11.9,37.7V107.1z M640.8,89.3c0-14.4-3.5-25.9-10.4-34.4c-6.9-8.5-16.8-12.7-29.6-12.7
		c-12.7,0-22.6,4.3-29.5,12.7c-6.9,8.5-10.3,20-10.3,34.4v17.8c0,14.5,3.5,26,10.4,34.5c6.9,8.5,16.8,12.7,29.6,12.7
		c12.8,0,22.6-4.2,29.5-12.7c6.9-8.5,10.3-20,10.3-34.6V89.3z"/>
</g>
<path id="XMLID_5_" class="st2" d="M413.7,164.7c146.9,2.6,271.7,33.9,320.3,56.3c-29.1-26.7-160.5-62.6-319-65.4
	c-154.3-2.7-284.1,27.6-318.5,52.2C149,188.2,271.5,162.2,413.7,164.7z"/>
<path id="XMLID_2_" class="st2" d="M278.3,33.1c-55.3,4.8-89.7-3.3-108.8-9.8c12,8.9,49.4,22.5,109,17.3
	c58.1-5.1,91.4-25.3,103.4-35.9C363,14.1,331.8,28.4,278.3,33.1z"/>
<g>
</g>
<g>
</g>
<g>
</g>
<g>
</g>
<g>
</g>
<g>
</g>
<g>
</g>
<g>
</g>
<g>
</g>
<g>
</g>
<g>
</g>
<g>
</g>
<g>
</g>
<g>
</g>
<g>
</g>
</svg>
